<svg xmlns="http://www.w3.org/2000/svg" width="1536" height="722" style="cursor: move;"><g transform="translate(-153.13519034468732,-53.131830685414855) scale(1.1892071150027208)"><path class="link" marker-end="" d="M546,253.5, 795,183" style="stroke-width: 2; stroke-opacity: 1; stroke: rgb(255, 66, 66);"></path><path class="link" marker-end="" d="M546,253.5, 795,230" style="stroke-width: 2; stroke-opacity: 1; stroke: rgb(255, 222, 222);"></path><path class="link" marker-end="" d="M546,347.5, 795,183" style="stroke-width: 2; stroke-opacity: 1; stroke: rgb(255, 14, 14);"></path><path class="link" marker-end="" d="M546,347.5, 795,230" style="stroke-width: 2; stroke-opacity: 1; stroke: rgb(255, 226, 226);"></path><path class="link" marker-end="" d="M546,441.5, 795,183" style="stroke-width: 2; stroke-opacity: 1; stroke: rgb(255, 40, 40);"></path><path class="link" marker-end="" d="M546,441.5, 795,230" style="stroke-width: 2; stroke-opacity: 1; stroke: rgb(227, 227, 255);"></path><path class="link" marker-end="" d="M546,253.5, 795,277" style="stroke-width: 2; stroke-opacity: 1; stroke: rgb(170, 170, 255);"></path><path class="link" marker-end="" d="M546,253.5, 795,324" style="stroke-width: 2; stroke-opacity: 1; stroke: rgb(255, 153, 153);"></path><path class="link" marker-end="" d="M546,253.5, 795,371" style="stroke-width: 2; stroke-opacity: 1; stroke: rgb(143, 143, 255);"></path><path class="link" marker-end="" d="M546,253.5, 795,418" style="stroke-width: 2; stroke-opacity: 1; stroke: rgb(228, 228, 255);"></path><path class="link" marker-end="" d="M546,253.5, 795,465" style="stroke-width: 2; stroke-opacity: 1; stroke: rgb(255, 13, 13);"></path><path class="link" marker-end="" d="M546,253.5, 795,512" style="stroke-width: 2; stroke-opacity: 1; stroke: rgb(255, 125, 125);"></path><path class="link" marker-end="" d="M546,253.5, 795,559" style="stroke-width: 2; stroke-opacity: 1; stroke: rgb(255, 44, 44);"></path><path class="link" marker-end="" d="M546,347.5, 795,277" style="stroke-width: 2; stroke-opacity: 1; stroke: rgb(187, 187, 255);"></path><path class="link" marker-end="" d="M546,347.5, 795,324" style="stroke-width: 2; stroke-opacity: 1; stroke: rgb(9, 9, 255);"></path><path class="link" marker-end="" d="M546,347.5, 795,371" style="stroke-width: 2; stroke-opacity: 1; stroke: rgb(255, 74, 74);"></path><path class="link" marker-end="" d="M546,347.5, 795,418" style="stroke-width: 2; stroke-opacity: 1; stroke: rgb(255, 138, 138);"></path><path class="link" marker-end="" d="M546,347.5, 795,465" style="stroke-width: 2; stroke-opacity: 1; stroke: rgb(255, 203, 203);"></path><path class="link" marker-end="" d="M546,347.5, 795,512" style="stroke-width: 2; stroke-opacity: 1; stroke: rgb(41, 41, 255);"></path><path class="link" marker-end="" d="M546,347.5, 795,559" style="stroke-width: 2; stroke-opacity: 1; stroke: rgb(228, 228, 255);"></path><path class="link" marker-end="" d="M546,441.5, 795,277" style="stroke-width: 2; stroke-opacity: 1; stroke: rgb(77, 77, 255);"></path><path class="link" marker-end="" d="M546,441.5, 795,324" style="stroke-width: 2; stroke-opacity: 1; stroke: rgb(83, 83, 255);"></path><path class="link" marker-end="" d="M546,441.5, 795,371" style="stroke-width: 2; stroke-opacity: 1; stroke: rgb(255, 135, 135);"></path><path class="link" marker-end="" d="M546,441.5, 795,418" style="stroke-width: 2; stroke-opacity: 1; stroke: rgb(165, 165, 255);"></path><path class="link" marker-end="" d="M546,441.5, 795,465" style="stroke-width: 2; stroke-opacity: 1; stroke: rgb(255, 39, 39);"></path><path class="link" marker-end="" d="M546,441.5, 795,512" style="stroke-width: 2; stroke-opacity: 1; stroke: rgb(193, 193, 255);"></path><path class="link" marker-end="" d="M546,441.5, 795,559" style="stroke-width: 2; stroke-opacity: 1; stroke: rgb(109, 109, 255);"></path><path class="link" marker-end="" d="M795,136, 1044,255.5" style="stroke-width: 2; stroke-opacity: 1; stroke: rgb(54, 54, 255);"></path><path class="link" marker-end="" d="M795,136, 1044,347.5" style="stroke-width: 2; stroke-opacity: 1; stroke: rgb(169, 169, 255);"></path><path class="link" marker-end="" d="M795,136, 1044,439.5" style="stroke-width: 2; stroke-opacity: 1; stroke: rgb(76, 76, 255);"></path><path class="link" marker-end="" d="M795,183, 1044,255.5" style="stroke-width: 2; stroke-opacity: 1; stroke: rgb(229, 229, 255);"></path><path class="link" marker-end="" d="M795,183, 1044,347.5" style="stroke-width: 2; stroke-opacity: 1; stroke: rgb(173, 173, 255);"></path><path class="link" marker-end="" d="M795,183, 1044,439.5" style="stroke-width: 2; stroke-opacity: 1; stroke: rgb(36, 36, 255);"></path><path class="link" marker-end="" d="M795,230, 1044,255.5" style="stroke-width: 2; stroke-opacity: 1; stroke: rgb(83, 83, 255);"></path><path class="link" marker-end="" d="M795,230, 1044,347.5" style="stroke-width: 2; stroke-opacity: 1; stroke: rgb(248, 248, 255);"></path><path class="link" marker-end="" d="M795,230, 1044,439.5" style="stroke-width: 2; stroke-opacity: 1; stroke: rgb(255, 172, 172);"></path><path class="link" marker-end="" d="M795,277, 1044,255.5" style="stroke-width: 2; stroke-opacity: 1; stroke: rgb(202, 202, 255);"></path><path class="link" marker-end="" d="M795,277, 1044,347.5" style="stroke-width: 2; stroke-opacity: 1; stroke: rgb(93, 93, 255);"></path><path class="link" marker-end="" d="M795,277, 1044,439.5" style="stroke-width: 2; stroke-opacity: 1; stroke: rgb(255, 93, 93);"></path><path class="link" marker-end="" d="M795,324, 1044,255.5" style="stroke-width: 2; stroke-opacity: 1; stroke: rgb(255, 43, 43);"></path><path class="link" marker-end="" d="M795,324, 1044,347.5" style="stroke-width: 2; stroke-opacity: 1; stroke: rgb(154, 154, 255);"></path><path class="link" marker-end="" d="M795,324, 1044,439.5" style="stroke-width: 2; stroke-opacity: 1; stroke: rgb(116, 116, 255);"></path><path class="link" marker-end="" d="M795,371, 1044,255.5" style="stroke-width: 2; stroke-opacity: 1; stroke: rgb(255, 137, 137);"></path><path class="link" marker-end="" d="M795,371, 1044,347.5" style="stroke-width: 2; stroke-opacity: 1; stroke: rgb(242, 242, 255);"></path><path class="link" marker-end="" d="M795,371, 1044,439.5" style="stroke-width: 2; stroke-opacity: 1; stroke: rgb(235, 235, 255);"></path><path class="link" marker-end="" d="M795,418, 1044,255.5" style="stroke-width: 2; stroke-opacity: 1; stroke: rgb(141, 141, 255);"></path><path class="link" marker-end="" d="M795,418, 1044,347.5" style="stroke-width: 2; stroke-opacity: 1; stroke: rgb(255, 63, 63);"></path><path class="link" marker-end="" d="M795,418, 1044,439.5" style="stroke-width: 2; stroke-opacity: 1; stroke: rgb(198, 198, 255);"></path><path class="link" marker-end="" d="M795,465, 1044,255.5" style="stroke-width: 2; stroke-opacity: 1; stroke: rgb(255, 228, 228);"></path><path class="link" marker-end="" d="M795,465, 1044,347.5" style="stroke-width: 2; stroke-opacity: 1; stroke: rgb(38, 38, 255);"></path><path class="link" marker-end="" d="M795,465, 1044,439.5" style="stroke-width: 2; stroke-opacity: 1; stroke: rgb(73, 73, 255);"></path><path class="link" marker-end="" d="M795,512, 1044,255.5" style="stroke-width: 2; stroke-opacity: 1; stroke: rgb(255, 171, 171);"></path><path class="link" marker-end="" d="M795,512, 1044,347.5" style="stroke-width: 2; stroke-opacity: 1; stroke: rgb(184, 184, 255);"></path><path class="link" marker-end="" d="M795,512, 1044,439.5" style="stroke-width: 2; stroke-opacity: 1; stroke: rgb(255, 232, 232);"></path><path class="link" marker-end="" d="M795,559, 1044,255.5" style="stroke-width: 2; stroke-opacity: 1; stroke: rgb(255, 183, 183);"></path><path class="link" marker-end="" d="M795,559, 1044,347.5" style="stroke-width: 2; stroke-opacity: 1; stroke: rgb(201, 201, 255);"></path><path class="link" marker-end="" d="M795,559, 1044,439.5" style="stroke-width: 2; stroke-opacity: 1; stroke: rgb(160, 160, 255);"></path><path class="link" marker-end="" d="M546,253.5, 795,136" style="stroke-width: 2; stroke-opacity: 1; stroke: rgb(255, 79, 79);"></path><path class="link" marker-end="" d="M546,347.5, 795,136" style="stroke-width: 2; stroke-opacity: 1; stroke: rgb(255, 214, 214);"></path><path class="link" marker-end="" d="M546,441.5, 795,136" style="stroke-width: 2; stroke-opacity: 1; stroke: rgb(255, 171, 171);"></path><circle r="15.5" class="node" id="0_0" cx="546" cy="253.5" style="fill: rgb(255, 255, 255); stroke: rgb(51, 51, 51);"></circle><circle r="15.5" class="node" id="0_1" cx="546" cy="347.5" style="fill: rgb(255, 255, 255); stroke: rgb(51, 51, 51);"></circle><circle r="15.5" class="node" id="0_2" cx="546" cy="441.5" style="fill: rgb(255, 255, 255); stroke: rgb(51, 51, 51);"></circle><circle r="15.5" class="node" id="1_0" cx="795" cy="136" style="fill: rgb(255, 255, 255); stroke: rgb(51, 51, 51);"></circle><circle r="15.5" class="node" id="1_1" cx="795" cy="183" style="fill: rgb(255, 255, 255); stroke: rgb(51, 51, 51);"></circle><circle r="15.5" class="node" id="1_2" cx="795" cy="230" style="fill: rgb(255, 255, 255); stroke: rgb(51, 51, 51);"></circle><text class="text" dy=".35em" x="511" y="606" style="font-size: 12px;">Input Layer ∈ ℝ³</text><text class="text" dy=".35em" x="760" y="606" style="font-size: 12px;">Hidden Layer ∈ ℝ¹⁰</text><circle r="15.5" class="node" id="1_3" cx="795" cy="277" style="fill: rgb(255, 255, 255); stroke: rgb(51, 51, 51);"></circle><circle r="15.5" class="node" id="1_4" cx="795" cy="324" style="fill: rgb(255, 255, 255); stroke: rgb(51, 51, 51);"></circle><circle r="15.5" class="node" id="1_5" cx="795" cy="371" style="fill: rgb(255, 255, 255); stroke: rgb(51, 51, 51);"></circle><circle r="15.5" class="node" id="1_6" cx="795" cy="418" style="fill: rgb(255, 255, 255); stroke: rgb(51, 51, 51);"></circle><circle r="15.5" class="node" id="1_7" cx="795" cy="465" style="fill: rgb(255, 255, 255); stroke: rgb(51, 51, 51);"></circle><circle r="15.5" class="node" id="1_8" cx="795" cy="512" style="fill: rgb(255, 255, 255); stroke: rgb(51, 51, 51);"></circle><circle r="15.5" class="node" id="1_9" cx="795" cy="559" style="fill: rgb(255, 255, 255); stroke: rgb(51, 51, 51);"></circle><circle r="15.5" class="node" id="2_0" cx="1044" cy="255.5" style="fill: rgb(255, 255, 255); stroke: rgb(51, 51, 51);"></circle><circle r="15.5" class="node" id="2_1" cx="1044" cy="347.5" style="fill: rgb(255, 255, 255); stroke: rgb(51, 51, 51);"></circle><circle r="15.5" class="node" id="2_2" cx="1044" cy="439.5" style="fill: rgb(255, 255, 255); stroke: rgb(51, 51, 51);"></circle><text class="text" dy=".35em" x="1009" y="606" style="font-size: 12px;">Output Layer ∈ ℝ³</text></g><defs><marker id="arrow" viewBox="0 -5 10 10" markerWidth="7" markerHeight="7" orient="auto" refX="55.4"><path d="M0,-5L10,0L0,5" style="stroke: rgb(80, 80, 80); fill: none;"></path></marker></defs></svg>